<svg width="40" height="40" viewBox="0 0 40 40" fill="none" xmlns="http://www.w3.org/2000/svg">
<rect width="40" height="40" rx="20" fill="black"/>
<path d="M13.922 24.04C14.678 24.04 15.266 23.8067 15.686 23.34C16.106 22.8733 16.316 22.2573 16.316 21.492V16.06H18.668V21.646C18.668 23.0647 18.2247 24.18 17.338 24.992C16.4607 25.804 15.322 26.21 13.922 26.21C12.4567 26.21 11.2947 25.804 10.436 24.992C9.57733 24.18 9.148 23.0647 9.148 21.646V16.06H11.528V21.492C11.528 22.2667 11.7333 22.8873 12.144 23.354C12.564 23.8113 13.1567 24.04 13.922 24.04ZM30.5085 23.928V26H20.4705V24.642L26.1405 18.118H20.6105V16.06H29.8785V17.39L24.1525 23.928H30.5085Z" fill="white" fill-opacity="0.4"/>
<rect x="0.5" y="0.5" width="39" height="39" rx="19.5" stroke="white" stroke-opacity="0.4"/>
</svg>
