<svg width="40" height="40" viewBox="0 0 40 40" fill="none" xmlns="http://www.w3.org/2000/svg">
<rect x="0.5" y="0.5" width="39" height="39" rx="19.5" fill="white"/>
<path d="M9.204 26V16.06H15.028C16.1107 16.06 16.9693 16.3167 17.604 16.83C18.248 17.3433 18.57 18.1273 18.57 19.182C18.57 19.854 18.4113 20.428 18.094 20.904C17.7767 21.38 17.3053 21.73 16.68 21.954L18.92 26H16.414L14.314 22.22H11.584V26H9.204ZM14.776 18.104H11.584V20.218H14.776C15.6813 20.218 16.134 19.8727 16.134 19.182C16.134 18.7807 16.0127 18.5007 15.77 18.342C15.5367 18.1833 15.2053 18.104 14.776 18.104ZM25.3243 24.04C26.0803 24.04 26.6683 23.8067 27.0883 23.34C27.5083 22.8733 27.7183 22.2573 27.7183 21.492V16.06H30.0703V21.646C30.0703 23.0647 29.627 24.18 28.7403 24.992C27.863 25.804 26.7243 26.21 25.3243 26.21C23.859 26.21 22.697 25.804 21.8383 24.992C20.9797 24.18 20.5503 23.0647 20.5503 21.646V16.06H22.9303V21.492C22.9303 22.2667 23.1357 22.8873 23.5463 23.354C23.9663 23.8113 24.559 24.04 25.3243 24.04Z" fill="black"/>
<rect x="0.5" y="0.5" width="39" height="39" rx="19.5" stroke="white"/>
</svg>
