<svg width="141" height="24" viewBox="0 0 141 24" fill="none" xmlns="http://www.w3.org/2000/svg">
<path d="M105.233 21.0078C103.263 20.9873 101.293 20.7132 99.4051 20.2186C94.4726 18.9281 92.8267 15.461 93.3045 10.7125C93.6784 6.99552 95.8409 4.75683 99.3967 3.845C103.421 2.8135 107.483 2.77791 111.465 3.96314C117.113 5.64443 119.307 12.805 115.651 17.4581C114.598 18.7979 113.12 19.6491 111.506 20.1399C109.483 20.7548 107.358 21.0297 105.233 21.0078ZM104.726 16.3312C106.219 16.4069 107.717 16.3176 109.22 16.0116C111.41 15.5648 112.18 14.3349 112.11 11.7834C112.047 9.51594 111.097 8.23831 108.943 8.00505C106.907 7.78391 104.828 7.67636 102.789 7.82026C99.3982 8.05958 97.8691 9.22057 98.6117 13.6798C98.7801 14.6901 99.3922 15.4557 100.358 15.6829C101.808 16.0245 103.265 16.257 104.726 16.3312Z" fill="white"/>
<path d="M124.901 10.7088C124.901 13.8571 124.85 16.7281 124.927 19.5946C124.956 20.6761 124.66 21.0586 123.562 20.97C122.415 20.8783 121.255 20.9495 120.012 20.9495C119.974 20.5496 119.916 20.23 119.917 19.9097C119.924 15.4611 119.943 11.0117 119.949 6.56315C119.95 5.2575 120.221 4.07984 121.53 3.47624C122.924 2.83327 124.099 3.23844 125.211 4.24343C128.373 7.10162 131.58 9.90906 134.772 12.7347C134.958 12.899 135.16 13.0452 135.572 13.3724C135.572 9.85454 135.572 6.56391 135.572 3.24829C137.261 3.24829 138.777 3.24829 140.452 3.24829C140.452 5.39609 140.448 7.47801 140.453 9.55993C140.46 12.2129 140.449 14.8666 140.499 17.5188C140.525 18.9123 140.169 20.0559 138.781 20.6072C137.471 21.1282 136.324 20.8132 135.273 19.8665C132.189 17.0879 129.074 14.3433 125.967 11.5873C125.695 11.3465 125.405 11.1231 124.901 10.7088Z" fill="white"/>
<path d="M0.5 20.8661C1.47466 19.3575 2.35755 17.9821 3.24953 16.6129C5.69567 12.8565 8.13195 9.09403 10.5986 5.35052C12.582 2.34162 15.3991 2.31966 17.4189 5.31644C20.7176 10.2111 23.9768 15.133 27.2505 20.0444C27.3885 20.2519 27.5031 20.476 27.7094 20.832C25.7866 20.832 24.0049 20.8789 22.2293 20.7934C21.8584 20.7752 21.4124 20.3359 21.1674 19.977C18.8123 16.528 16.4928 13.0541 14.096 9.48709C12.6465 11.7394 11.238 13.9274 9.70051 16.316C11.3919 16.316 12.9347 16.3645 14.4722 16.2948C15.2117 16.2615 15.6236 16.5031 16.0036 17.1173C16.7598 18.3388 17.6055 19.5044 18.5309 20.8653C12.4349 20.8661 6.58159 20.8661 0.5 20.8661Z" fill="white"/>
<path d="M36.0968 14.4333C38.6727 10.5648 41.1127 6.85011 43.6241 3.1846C43.9867 2.65522 44.6314 2.18719 45.2427 1.98422C47.3589 1.28217 49.5191 0.708867 51.9599 0.000757354C46.5261 8.11183 41.2622 15.9684 35.8814 24C30.663 15.9965 25.5311 8.12774 20.2315 0C20.8269 0.143894 21.1333 0.208268 21.4352 0.292332C22.3719 0.554371 23.2905 0.953487 24.2439 1.06633C27.3886 1.43894 29.2924 3.2202 30.751 5.94585C32.2938 8.82903 34.2279 11.5032 36.0968 14.4333Z" fill="white"/>
<path d="M71.4099 20.7608C65.5475 20.7608 59.7185 20.7608 53.6604 20.7608C54.6806 19.2613 55.5923 17.8738 56.5707 16.5349C56.708 16.347 57.1715 16.3486 57.4847 16.3455C59.1185 16.3281 60.7523 16.3372 62.5886 16.3372C61.0496 13.9463 59.6259 11.7349 58.0946 9.35455C56.9826 11.0033 55.9655 12.5005 54.9597 14.0046C53.6286 15.9949 52.2898 17.9799 50.9913 19.9906C50.6287 20.5518 50.2343 20.807 49.5388 20.7828C47.9368 20.7275 46.3311 20.7653 44.5934 20.7653C44.7603 20.4382 44.8627 20.1761 45.0151 19.9482C48.2721 15.0687 51.5336 10.1914 54.7974 5.31567C55.6727 4.00775 56.7611 3.04972 58.4761 3.18453C59.5971 3.27238 60.4891 3.80781 61.0929 4.72495C64.5266 9.9377 67.9375 15.1664 71.35 20.3927C71.4023 20.4738 71.3856 20.6002 71.4099 20.7608Z" fill="white"/>
<path d="M93.727 20.8639C87.0371 20.8639 80.5642 20.8639 73.9873 20.8639C73.9873 14.9537 73.9873 9.14263 73.9873 3.22632C75.6127 3.22632 77.267 3.22632 79.0138 3.22632C79.0138 7.56964 79.0138 11.8577 79.0138 16.3176C79.4962 16.3176 79.8899 16.3176 80.2843 16.3176C83.4313 16.3146 86.579 16.329 89.726 16.2919C90.3548 16.2843 90.75 16.4358 91.0981 16.9864C91.9104 18.2693 92.7986 19.5053 93.727 20.8639Z" fill="white"/>
</svg>
