<svg width="184" height="24" viewBox="0 0 184 24" fill="none" xmlns="http://www.w3.org/2000/svg">
<path d="M152.292 18.3012L151.934 0.707764H158.441V22.8844H149.086L142.589 4.68611H142.448L142.81 22.8844H136.34V0.707764H146.106L152.15 18.3012H152.292Z" fill="white"/>
<path d="M33.9803 2.78654L30.38 23.1173H23.2792L28.1514 0.707764H39.8459L44.7024 23.1173H37.6279L34.1275 2.78654H33.9803Z" fill="white"/>
<path d="M64.6372 17.8397L67.8854 0.707764H78.6075L79.1752 23.1173H72.6052L72.4318 2.97022H72.2951L67.9011 23.1173H61.2313L56.8321 2.97022H56.6902L56.5272 23.1173H49.9415L50.5249 0.707764H61.2523L64.4953 17.8397H64.6372Z" fill="white"/>
<path d="M12.2096 16.796C12.4672 17.3381 12.3883 18.037 12.2674 18.4581C12.0467 19.2018 11.4528 19.9634 9.70777 19.9634C8.0574 19.9634 7.05876 19.157 7.05876 17.9294V15.7611H0.00525789L0 17.4949C0 22.4902 4.61474 24 9.5606 24C14.3173 24 18.233 22.6156 18.8532 18.8792C19.1738 16.9438 18.932 15.6759 18.8269 15.1966C17.7179 10.5059 7.73678 9.1036 6.99569 6.48273C6.86955 6.03472 6.90634 5.55535 6.96941 5.29998C7.15337 4.58764 7.72627 3.79914 9.37139 3.79914C10.9061 3.79914 11.8154 4.61004 11.8154 5.83312C11.8154 6.24529 11.8154 7.21747 11.8154 7.21747H18.3696V5.64495C18.3696 0.76162 13.2293 0 9.50804 0C4.83023 0 1.00915 1.31716 0.310103 4.96397C0.120889 5.972 0.0946074 6.86802 0.367918 7.99253C1.51897 12.5667 10.8536 13.8928 12.2096 16.796Z" fill="white"/>
<path d="M97.6966 16.7558C97.9541 17.2934 97.87 17.9744 97.7544 18.3955C97.5389 19.1392 96.9502 19.8874 95.2158 19.8874C93.5917 19.8874 92.5983 19.081 92.5983 17.8803L92.5931 15.7298H85.6132L85.6027 17.4412C85.6027 22.3873 90.1753 23.8792 95.0686 23.8792C99.7727 23.8792 103.652 22.5127 104.267 18.8122C104.587 16.8902 104.361 15.6402 104.245 15.1698C103.142 10.5239 93.2658 9.13509 92.53 6.53662C92.4039 6.08861 92.4406 5.6182 92.5037 5.37627C92.6929 4.65497 93.2553 3.88888 94.8846 3.88888C96.4089 3.88888 97.2971 4.67738 97.2971 5.89597C97.2971 6.30366 97.2971 7.26688 97.2971 7.26688H103.804V5.7078C103.804 0.878234 98.7057 0.121094 95.016 0.121094C90.3908 0.121094 86.6013 1.42033 85.918 5.04475C85.7288 6.03933 85.7078 6.91743 85.9811 8.03746C87.1111 12.5669 96.3563 13.884 97.6966 16.7558Z" fill="white"/>
<path d="M119.779 19.7661C121.603 19.7661 122.171 18.6909 122.297 18.1398C122.349 17.8979 122.365 17.5753 122.36 17.2841V0.69873H129.009V16.7734C129.025 17.1856 128.977 18.0323 128.951 18.2429C128.483 22.4273 124.604 23.7848 119.774 23.7848C114.939 23.7848 111.054 22.4273 110.592 18.2429C110.571 18.0323 110.524 17.1811 110.534 16.7734V0.69873H117.178V17.2797C117.178 17.5709 117.188 17.8979 117.241 18.1354C117.388 18.6864 117.94 19.7661 119.779 19.7661Z" fill="white"/>
<path d="M174.623 19.5287C176.526 19.5287 177.194 18.5027 177.314 17.9069C177.362 17.6515 177.377 17.3379 177.372 17.0556V13.8031H174.676V10.5326H184V16.5494C183.995 16.9705 183.984 17.2796 183.905 18.0278C183.469 22.1047 179.317 23.5608 174.66 23.5608C169.993 23.5608 165.851 22.1047 165.404 18.0278C165.331 17.2796 165.32 16.9705 165.31 16.5494L165.315 7.11426C165.315 6.71553 165.373 6.01215 165.425 5.63582C166.009 1.44691 169.993 0.0983887 174.66 0.0983887C179.322 0.0983887 183.406 1.43795 183.89 5.63582C183.974 6.34816 183.947 7.11426 183.947 7.11426V7.86244H177.32V6.608C177.325 6.61248 177.309 6.07487 177.236 5.75678C177.125 5.25949 176.621 4.12154 174.613 4.12154C172.694 4.12154 172.137 5.19676 171.995 5.75678C171.917 6.05247 171.885 6.4512 171.885 6.81409V17.0646C171.88 17.3469 171.901 17.6605 171.953 17.9158C172.058 18.5027 172.721 19.5287 174.623 19.5287Z" fill="white"/>
</svg>
