<svg width="18" height="32" viewBox="0 0 18 32" fill="none" xmlns="http://www.w3.org/2000/svg">
<path d="M12.6668 0.791504C10.6225 0.791504 8.66183 1.60364 7.21616 3.04922C5.77066 4.49482 4.9585 6.45545 4.9585 8.49984V12.7915H0.833496C0.626396 12.7915 0.458496 12.9593 0.458496 13.1665V18.8332C0.458496 19.0403 0.626396 19.2082 0.833496 19.2082H4.9585V30.8332C4.9585 31.0403 5.1264 31.2082 5.3335 31.2082H11.0002C11.2073 31.2082 11.3752 31.0403 11.3752 30.8332V19.2082H15.5367C15.7088 19.2082 15.8588 19.091 15.9005 18.9242L17.3172 13.2575C17.3763 13.0208 17.1973 12.7915 16.9533 12.7915H11.3752V8.49984C11.3752 8.15727 11.5113 7.82872 11.7535 7.58649C11.9957 7.34425 12.3243 7.20817 12.6668 7.20817H17.0002C17.2073 7.20817 17.3752 7.04027 17.3752 6.83317V1.1665C17.3752 0.959404 17.2073 0.791504 17.0002 0.791504H12.6668Z" fill="white"/>
</svg>
