<svg width="34" height="26" viewBox="0 0 34 26" fill="none" xmlns="http://www.w3.org/2000/svg">
<path fill-rule="evenodd" clip-rule="evenodd" d="M8.64801 1.15092C14.2075 0.71597 19.7924 0.71597 25.3519 1.15092L29.0864 1.44309C31.1665 1.60582 32.8682 3.16482 33.212 5.22277C34.0724 10.3719 34.0724 15.6282 33.212 20.7774C32.8682 22.8352 31.1665 24.3942 29.0864 24.557L25.3519 24.8492C19.7924 25.284 14.2075 25.284 8.64801 24.8492L4.91351 24.557C2.83339 24.3942 1.13169 22.8352 0.787841 20.7774C-0.0725095 15.6282 -0.0725095 10.3719 0.787841 5.22277C1.13169 3.16482 2.83339 1.60582 4.91351 1.44309L8.64801 1.15092ZM13.6665 17.1169V8.88315C13.6665 8.4945 14.0905 8.25443 14.4237 8.4544L21.2854 12.5714C21.609 12.7655 21.609 13.2345 21.2854 13.4287L14.4237 17.5457C14.0905 17.7457 13.6665 17.5055 13.6665 17.1169Z" fill="white"/>
</svg>
