<svg width="34" height="30" viewBox="0 0 34 30" fill="none" xmlns="http://www.w3.org/2000/svg">
<path fill-rule="evenodd" clip-rule="evenodd" d="M28.8053 27.9834L28.8064 27.9804L28.8354 27.9079L33.8334 2.70954V2.62769C33.8334 1.99986 33.6014 1.45176 33.0966 1.12299C32.6548 0.835223 32.1469 0.814739 31.7908 0.841772C31.4139 0.870356 31.0588 0.964389 30.8129 1.04266C30.6864 1.08292 30.5806 1.12171 30.5048 1.15106C30.4668 1.16579 30.4359 1.17829 30.4136 1.18759L30.3916 1.19686L2.52524 12.1284L2.51757 12.1311C2.50252 12.1366 2.48262 12.1441 2.45857 12.1534C2.41066 12.1721 2.34542 12.1988 2.26879 12.2336C2.11832 12.3018 1.91042 12.4069 1.69959 12.5513C1.34151 12.7966 0.65964 13.3771 0.774773 14.2974C0.87014 15.0598 1.39566 15.5439 1.74994 15.7946C1.93984 15.9291 2.12154 16.0259 2.25459 16.0893C2.32199 16.1214 2.37926 16.1459 2.42191 16.1633C2.44329 16.1719 2.46116 16.1789 2.47499 16.1843L2.49271 16.1908L2.50402 16.1951L7.37942 17.8364C7.36297 18.1423 7.39331 18.4541 7.47442 18.7619L9.91657 28.0259C10.2061 29.1243 11.1998 29.8894 12.3358 29.8886C13.354 29.8879 14.2571 29.2719 14.6407 28.3529L18.4534 24.2761L25.0018 29.2964L25.0949 29.3371C25.6898 29.5968 26.2458 29.6789 26.7539 29.6096C27.2614 29.5403 27.6646 29.3274 27.9676 29.0851C28.2658 28.8466 28.4699 28.5774 28.5984 28.3748C28.6638 28.2718 28.7124 28.1813 28.7461 28.1131C28.7631 28.0789 28.7764 28.0501 28.7864 28.0274L28.7991 27.9984L28.8036 27.9878L28.8053 27.9834ZM9.89176 18.1246C9.83626 17.9141 9.92339 17.6918 10.1072 17.5751L26.6439 7.07354C26.6439 7.07354 27.6166 6.48304 27.5818 7.07354C27.5818 7.07354 27.7554 7.17781 27.2341 7.66402C26.7398 8.12582 15.4481 19.0276 14.3055 20.1308C14.2395 20.1944 14.2002 20.2674 14.1769 20.3561L12.3339 27.3886L9.89176 18.1246Z" fill="white"/>
</svg>
