<svg width="185" height="24" viewBox="0 0 185 24" fill="none" xmlns="http://www.w3.org/2000/svg">
<path fill-rule="evenodd" clip-rule="evenodd" d="M8.97683 6.56835H28.9036C28.9036 1.23884 23.2799 0.206306 21.431 0.206306H7.53009C5.52177 0.206306 0.5 1.23884 0.5 6.56835V9.00455C0.5 14.2926 5.52177 15.2432 7.53009 15.2432H20.3865C22.2748 15.2432 22.3545 17.8038 20.3865 17.8038L0.5 17.8453C0.5 23.0919 6.24564 23.9595 8.13396 23.9595H21.8332C23.8415 23.9595 28.9036 23.0919 28.9036 17.8453V15.2432C28.9036 9.99663 23.8425 9.00455 21.8332 9.00455L8.97683 9.04601C7.0885 9.04601 7.04916 6.56835 8.97683 6.56835ZM165.981 0.371141H154.931L145.932 8.84072L142.518 8.79824V0.371141H134.804V24H142.518V14.417H146.696L157.663 24H168.19L153.846 11.3184L165.981 0.371141ZM55.0167 9.04601H39.1881V0.289225H31.3142V23.9595H39.1881V15.3261H55.0167V23.9595H62.57V0.289225H55.0167V9.04601ZM73.417 0.289225H65.8234V23.9595H73.417V0.289225ZM169.677 23.9595H177.148V0.289225H169.677V23.9595ZM90.1701 23.9595H96.7182L108.288 0.289225H100.174L91.6965 18.0516L83.019 0.289225H74.8235L84.9073 20.9034C86.1121 23.0908 88.0408 23.9595 90.1701 23.9595ZM123.595 3.51121C122.27 1.32176 120.341 0.371141 118.573 0.371141H111.704L106.723 10.4517L100.054 24H108.13L110.298 19.6636H123.355L125.324 24H133.48L126.932 10.4517L123.595 3.51121ZM112.829 14.417L114.717 10.4517L116.646 6.44497L118.653 10.4517L120.663 14.417H112.829ZM184.46 2.10551C184.419 1.81628 184.3 1.52806 184.139 1.23883C183.926 0.848039 183.605 0.531724 183.216 0.330689C182.855 0.0829218 182.413 0 182.011 0C181.608 0 181.206 0.0829218 180.764 0.330689C180.403 0.536992 180.082 0.867687 179.84 1.23883C179.719 1.52806 179.6 1.81729 179.56 2.10551C179.52 2.27035 179.52 2.39474 179.52 2.51913C179.52 2.97421 179.639 3.42828 179.84 3.79942C180.082 4.21304 180.362 4.54374 180.764 4.75004C181.165 4.95736 181.566 5.1222 182.011 5.1222C182.412 5.1222 182.854 4.95736 183.256 4.75004C183.617 4.54374 183.937 4.21304 184.139 3.79942C184.379 3.42828 184.5 2.97421 184.5 2.51913C184.5 2.39575 184.5 2.27035 184.46 2.10551ZM183.738 3.59312C183.561 3.89931 183.312 4.15489 183.014 4.33642C182.702 4.49601 182.359 4.58073 182.011 4.58419C181.648 4.58419 181.327 4.50127 181.007 4.33642C180.695 4.14047 180.433 3.87156 180.242 3.55166C180.084 3.23198 180.001 2.87802 180.002 2.51913C180.002 2.39474 180.002 2.2299 180.043 2.10551C180.083 1.89921 180.162 1.69291 180.283 1.4866C180.444 1.15591 180.684 0.908141 181.007 0.743301C181.327 0.577449 181.688 0.453057 182.011 0.453057C182.331 0.453057 182.652 0.577449 183.014 0.743301C183.296 0.909153 183.576 1.15692 183.738 1.4866C183.859 1.69291 183.937 1.89921 183.978 2.10551C184.018 2.2299 184.018 2.39474 184.018 2.51913C184.018 2.89128 183.937 3.22198 183.738 3.59312Z" fill="white"/>
</svg>
