<svg width="310" height="67" viewBox="0 0 310 67" fill="none" xmlns="http://www.w3.org/2000/svg">
<path d="M10.528 56.901L9.14767 58.3483L9.15436 58.3547L10.528 56.901ZM10.617 9.731L9.25765 8.26397L10.617 9.731ZM59.122 9.909L57.735 11.3499L57.7418 11.3565L57.7488 11.363L59.122 9.909ZM58.944 56.99L57.5841 55.5234L57.5775 55.5297L58.944 56.99ZM46.039 45.153L44.5426 43.826L46.039 45.153ZM41.322 18.186L42.1727 16.3759L42.1286 16.3552L42.0835 16.3366L41.322 18.186ZM23.611 21.657L25.1074 22.984V22.984L23.611 21.657ZM23.611 45.242L22.1146 46.569L22.1279 46.5839L22.1414 46.5986L23.611 45.242ZM34.825 64.068C25.553 64.068 17.9614 61.1736 11.9016 55.4473L9.15436 58.3547C16.0292 64.8511 24.6356 68.068 34.825 68.068V64.068ZM11.9083 55.4537C5.92948 49.7516 2.916 42.4588 2.916 33.405H-1.084C-1.084 43.4566 2.31052 51.8277 9.14769 58.3483L11.9083 55.4537ZM2.916 33.405C2.916 24.1037 5.96495 16.7682 11.9764 11.198L9.25765 8.26397C2.33438 14.6791 -1.084 23.1263 -1.084 33.405H2.916ZM11.9764 11.198C18.0367 5.58243 25.6047 2.74199 34.825 2.74199V-1.25801C24.7027 -1.25801 16.1319 1.89423 9.25765 8.26397L11.9764 11.198ZM34.825 2.74199C44.2233 2.74199 51.8041 5.64069 57.735 11.3499L60.509 8.46811C53.7426 1.95464 45.1254 -1.25801 34.825 -1.25801V2.74199ZM57.7488 11.363C63.7182 17.0008 66.734 24.2879 66.734 33.405H70.734C70.734 23.2981 67.3418 14.9212 60.4952 8.45497L57.7488 11.363ZM66.734 33.405C66.734 42.5735 63.6648 49.885 57.5841 55.5235L60.3039 58.4565C67.2765 51.991 70.734 43.5792 70.734 33.405H66.734ZM57.5775 55.5297C51.5138 61.204 43.9767 64.068 34.825 64.068V68.068C44.8973 68.068 53.4396 64.88 60.3105 58.4503L57.5775 55.5297ZM34.825 51.87C40.0109 51.87 44.3209 50.1048 47.5354 46.48L44.5426 43.826C42.1798 46.4905 39.0138 47.87 34.825 47.87V51.87ZM47.5354 46.48C50.6866 42.9265 52.222 38.5208 52.222 33.405H48.222C48.222 37.6639 46.9688 41.0901 44.5426 43.826L47.5354 46.48ZM52.222 33.405C52.222 29.4599 51.4258 25.9837 49.7235 23.0726C48.0126 20.1471 45.4615 17.9217 42.1727 16.3759L40.4713 19.996C43.1158 21.239 45.0147 22.9444 46.2705 25.0919C47.5349 27.2538 48.222 29.9928 48.222 33.405H52.222ZM42.0835 16.3366C39.8102 15.4006 37.3842 14.94 34.825 14.94V18.94C36.8938 18.94 38.7991 19.3101 40.5605 20.0354L42.0835 16.3366ZM34.825 14.94C29.6391 14.94 25.3291 16.7052 22.1146 20.33L25.1074 22.984C27.4702 20.3195 30.6362 18.94 34.825 18.94V14.94ZM22.1146 20.33C18.9634 23.8835 17.428 28.2892 17.428 33.405H21.428C21.428 29.1461 22.6812 25.7199 25.1074 22.984L22.1146 20.33ZM17.428 33.405C17.428 38.573 18.9592 43.0107 22.1146 46.569L25.1074 43.915C22.6855 41.1839 21.428 37.7304 21.428 33.405H17.428ZM22.1414 46.5986C25.409 50.1385 29.7023 51.87 34.825 51.87V47.87C30.6917 47.87 27.509 46.5162 25.0806 43.8854L22.1414 46.5986ZM146.318 65H144.318V67H146.318V65ZM146.318 41.326H148.318V39.326H146.318V41.326ZM119.351 41.326V39.326H117.351V41.326H119.351ZM119.351 65V67H121.351V65H119.351ZM101.106 65H99.1057V67H101.106V65ZM101.106 1.81V-0.190002H99.1057V1.81H101.106ZM119.351 1.81H121.351V-0.190002H119.351V1.81ZM119.351 25.484H117.351V27.484H119.351V25.484ZM146.318 25.484V27.484H148.318V25.484H146.318ZM146.318 1.81V-0.190002H144.318V1.81H146.318ZM164.563 1.81H166.563V-0.190002H164.563V1.81ZM164.563 65V67H166.563V65H164.563ZM148.318 65V41.326H144.318V65H148.318ZM146.318 39.326H119.351V43.326H146.318V39.326ZM117.351 41.326V65H121.351V41.326H117.351ZM119.351 63H101.106V67H119.351V63ZM103.106 65V1.81H99.1057V65H103.106ZM101.106 3.81H119.351V-0.190002H101.106V3.81ZM117.351 1.81V25.484H121.351V1.81H117.351ZM119.351 27.484H146.318V23.484H119.351V27.484ZM148.318 25.484V1.81H144.318V25.484H148.318ZM146.318 3.81H164.563V-0.190002H146.318V3.81ZM162.563 1.81V65H166.563V1.81H162.563ZM164.563 63H146.318V67H164.563V63ZM225.909 65L224.058 65.7587L224.567 67H225.909V65ZM222.26 56.1L224.11 55.3413L223.601 54.1H222.26V56.1ZM194.314 56.1V54.1H192.972L192.463 55.3413L194.314 56.1ZM190.665 65V67H192.006L192.515 65.7587L190.665 65ZM172.153 65L170.313 64.215L169.125 67H172.153V65ZM199.12 1.81V-0.190002H197.799L197.28 1.02497L199.12 1.81ZM218.789 1.81L220.63 1.02936L220.113 -0.190002H218.789V1.81ZM245.578 65V67H248.598L247.419 64.2194L245.578 65ZM200.544 41.148L198.693 40.3887L197.561 43.148H200.544V41.148ZM216.03 41.148V43.148H219.012L217.88 40.3887L216.03 41.148ZM208.287 22.28L210.137 21.5207L208.287 17.012L206.436 21.5207L208.287 22.28ZM227.759 64.2413L224.11 55.3413L220.409 56.8587L224.058 65.7587L227.759 64.2413ZM222.26 54.1H194.314V58.1H222.26V54.1ZM192.463 55.3413L188.814 64.2413L192.515 65.7587L196.164 56.8587L192.463 55.3413ZM190.665 63H172.153V67H190.665V63ZM173.992 65.785L200.959 2.59502L197.28 1.02497L170.313 64.215L173.992 65.785ZM199.12 3.81H218.789V-0.190002H199.12V3.81ZM216.947 2.59063L243.736 65.7806L247.419 64.2194L220.63 1.02936L216.947 2.59063ZM245.578 63H225.909V67H245.578V63ZM200.544 43.148H216.03V39.148H200.544V43.148ZM217.88 40.3887L210.137 21.5207L206.436 23.0393L214.179 41.9073L217.88 40.3887ZM206.436 21.5207L198.693 40.3887L202.394 41.9073L210.137 23.0393L206.436 21.5207ZM255.963 56.901L254.542 58.3084L254.549 58.3152L254.556 58.322L255.963 56.901ZM256.052 9.82L254.658 8.38543L254.651 8.39212L256.052 9.82ZM302.51 9.197L301.125 10.6401L301.127 10.6418L302.51 9.197ZM309.986 22.992V24.992H312.329L311.961 22.6778L309.986 22.992ZM291.474 22.992L290.06 24.4062L290.645 24.992H291.474V22.992ZM290.94 22.369L289.276 23.4784L289.335 23.5673L289.403 23.6494L290.94 22.369ZM290.317 21.39L292.032 20.361L291.905 20.1499L291.731 19.9758L290.317 21.39ZM269.135 21.835L267.57 20.5891L267.567 20.5928L269.135 21.835ZM269.224 45.064L267.659 46.3099L267.672 46.3258L267.685 46.3415L269.224 45.064ZM291.563 43.907V41.907H290.569L289.969 42.6993L291.563 43.907ZM309.986 43.907L311.938 44.3409L312.479 41.907H309.986V43.907ZM309.007 47.556L310.897 48.2109L310.916 48.1547L310.932 48.0975L309.007 47.556ZM297.793 61.351L298.799 63.0792L298.807 63.0751L298.814 63.071L297.793 61.351ZM279.726 64.068C270.516 64.068 263.122 61.1768 257.37 55.48L254.556 58.322C261.145 64.8479 269.593 68.068 279.726 68.068V64.068ZM257.384 55.4936C251.68 49.7341 248.796 42.4252 248.796 33.405H244.796C244.796 43.3715 248.023 51.7265 254.542 58.3084L257.384 55.4936ZM248.796 33.405C248.796 24.2008 251.712 16.8774 257.452 11.2479L254.651 8.39212C248.05 14.8666 244.796 23.2666 244.796 33.405H248.796ZM257.445 11.2546C263.263 5.60291 270.637 2.74199 279.726 2.74199V-1.25801C269.71 -1.25801 261.3 1.93308 254.658 8.38544L257.445 11.2546ZM279.726 2.74199C288.605 2.74199 295.678 5.41279 301.125 10.6401L303.895 7.75393C297.594 1.70787 289.477 -1.25801 279.726 -1.25801V2.74199ZM301.127 10.6418C304.994 14.3431 307.255 18.5547 308.011 23.3062L311.961 22.6778C311.056 16.9866 308.332 12.0016 303.893 7.75216L301.127 10.6418ZM309.986 20.992H291.474V24.992H309.986V20.992ZM292.888 21.5778C292.917 21.607 292.928 21.62 292.902 21.591C292.883 21.5699 292.855 21.5372 292.814 21.4902C292.734 21.3965 292.622 21.2637 292.476 21.0886L289.403 23.6494C289.666 23.965 289.919 24.2654 290.06 24.4062L292.888 21.5778ZM292.604 21.2596C292.38 20.9241 292.19 20.625 292.032 20.361L288.602 22.419C288.799 22.7483 289.025 23.1019 289.276 23.4784L292.604 21.2596ZM291.731 19.9758C288.444 16.6891 284.404 15.029 279.726 15.029V19.029C283.355 19.029 286.375 20.2762 288.903 22.8042L291.731 19.9758ZM279.726 15.029C274.678 15.029 270.543 16.8563 267.57 20.5891L270.699 23.0809C272.83 20.4057 275.755 19.029 279.726 19.029V15.029ZM267.567 20.5928C264.757 24.1393 263.397 28.4511 263.397 33.405H267.397C267.397 29.2215 268.529 25.8201 270.702 23.0772L267.567 20.5928ZM263.397 33.405C263.397 38.3709 264.793 42.7108 267.659 46.3099L270.788 43.8181C268.552 41.0092 267.397 37.5764 267.397 33.405H263.397ZM267.685 46.3415C270.707 49.9813 274.791 51.781 279.726 51.781V47.781C275.88 47.781 272.962 46.436 270.763 43.7865L267.685 46.3415ZM279.726 51.781C285.275 51.781 289.811 49.5312 293.157 45.1147L289.969 42.6993C287.381 46.1148 284.026 47.781 279.726 47.781V51.781ZM291.563 45.907H309.986V41.907H291.563V45.907ZM308.034 43.4731C307.929 43.9417 307.62 45.0997 307.082 47.0145L310.932 48.0975C311.462 46.2149 311.805 44.9403 311.938 44.3409L308.034 43.4731ZM307.117 46.9011C305.193 52.4522 301.761 56.6709 296.772 59.631L298.814 63.071C304.624 59.6231 308.667 54.6451 310.897 48.2109L307.117 46.9011ZM296.786 59.6228C291.712 62.5781 286.041 64.068 279.726 64.068V68.068C286.702 68.068 293.075 66.4133 298.799 63.0792L296.786 59.6228Z" fill="white"/>
</svg>
