<svg width="597" height="64" viewBox="0 0 597 64" fill="none" xmlns="http://www.w3.org/2000/svg">
<path d="M0.675 64H-1.325V66H0.675V64ZM0.675 0.809998V-1.19H-1.325V0.809998H0.675ZM63.242 0.809998H65.242V-1.19H63.242V0.809998ZM63.242 64V66H65.242V64H63.242ZM44.997 64H42.997V66H44.997V64ZM44.997 16.652H46.997V14.652H44.997V16.652ZM18.92 16.652V14.652H16.92V16.652H18.92ZM18.92 64V66H20.92V64H18.92ZM2.675 64V0.809998H-1.325V64H2.675ZM0.675 2.81H63.242V-1.19H0.675V2.81ZM61.242 0.809998V64H65.242V0.809998H61.242ZM63.242 62H44.997V66H63.242V62ZM46.997 64V16.652H42.997V64H46.997ZM44.997 14.652H18.92V18.652H44.997V14.652ZM16.92 16.652V64H20.92V16.652H16.92ZM18.92 62H0.675V66H18.92V62ZM124.522 64L122.671 64.7587L123.18 66H124.522V64ZM120.873 55.1L122.723 54.3413L122.215 53.1H120.873V55.1ZM92.927 55.1V53.1H91.5854L91.0765 54.3413L92.927 55.1ZM89.278 64V66H90.6196L91.1285 64.7587L89.278 64ZM70.766 64L68.9265 63.215L67.7379 66H70.766V64ZM97.733 0.809998V-1.19H96.412L95.8935 0.0249729L97.733 0.809998ZM117.402 0.809998L119.243 0.0293636L118.726 -1.19H117.402V0.809998ZM144.191 64V66H147.211L146.032 63.2194L144.191 64ZM99.157 40.148L97.3067 39.3887L96.1744 42.148H99.157V40.148ZM114.643 40.148V42.148H117.626L116.493 39.3887L114.643 40.148ZM106.9 21.28L108.75 20.5207L106.9 16.012L105.05 20.5207L106.9 21.28ZM126.372 63.2413L122.723 54.3413L119.022 55.8587L122.671 64.7587L126.372 63.2413ZM120.873 53.1H92.927V57.1H120.873V53.1ZM91.0765 54.3413L87.4275 63.2413L91.1285 64.7587L94.7775 55.8587L91.0765 54.3413ZM89.278 62H70.766V66H89.278V62ZM72.6055 64.785L99.5725 1.59502L95.8935 0.0249729L68.9265 63.215L72.6055 64.785ZM97.733 2.81H117.402V-1.19H97.733V2.81ZM115.561 1.59063L142.35 64.7806L146.032 63.2194L119.243 0.0293636L115.561 1.59063ZM144.191 62H124.522V66H144.191V62ZM99.157 42.148H114.643V38.148H99.157V42.148ZM116.493 39.3887L108.75 20.5207L105.05 22.0393L112.793 40.9073L116.493 39.3887ZM105.05 20.5207L97.3067 39.3887L101.007 40.9073L108.75 22.0393L105.05 20.5207ZM151.732 64H149.732V66H151.732V64ZM151.732 0.809998V-1.19H149.732V0.809998H151.732ZM207.713 6.15L206.411 7.66855L206.422 7.67759L207.713 6.15ZM207.713 38.368L206.422 36.8404L206.411 36.8495L207.713 38.368ZM169.888 43.708V41.708H167.888V43.708H169.888ZM169.888 64V66H171.888V64H169.888ZM169.888 16.474V14.474H167.888V16.474H169.888ZM169.888 28.044H167.888V30.044H169.888V28.044ZM153.732 64V0.809998H149.732V64H153.732ZM151.732 2.81H190.536V-1.19H151.732V2.81ZM190.536 2.81C197.517 2.81 202.726 4.51006 206.411 7.66851L209.014 4.63148C204.392 0.669933 198.15 -1.19 190.536 -1.19V2.81ZM206.422 7.67759C210.057 10.7499 212.032 15.4782 212.032 22.259H216.032C216.032 14.6811 213.793 8.67011 209.004 4.62241L206.422 7.67759ZM212.032 22.259C212.032 29.0398 210.057 33.7681 206.422 36.8404L209.004 39.8956C213.793 35.8479 216.032 29.8368 216.032 22.259H212.032ZM206.411 36.8495C202.726 40.0079 197.517 41.708 190.536 41.708V45.708C198.15 45.708 204.392 43.8481 209.014 39.8865L206.411 36.8495ZM190.536 41.708H169.888V45.708H190.536V41.708ZM167.888 43.708V64H171.888V43.708H167.888ZM169.888 62H151.732V66H169.888V62ZM188.311 14.474H169.888V18.474H188.311V14.474ZM167.888 16.474V28.044H171.888V16.474H167.888ZM169.888 30.044H188.311V26.044H169.888V30.044ZM188.311 30.044C190.878 30.044 193.175 29.5238 194.855 28.1422C196.609 26.6991 197.342 24.6096 197.342 22.259H193.342C193.342 23.765 192.903 24.5681 192.313 25.0533C191.649 25.6 190.431 26.044 188.311 26.044V30.044ZM197.342 22.259C197.342 19.9084 196.609 17.8189 194.855 16.3758C193.175 14.9942 190.878 14.474 188.311 14.474V18.474C190.431 18.474 191.649 18.918 192.313 19.4647C192.903 19.9499 193.342 20.753 193.342 22.259H197.342ZM220.304 16.474H218.304V18.474H220.304V16.474ZM220.304 0.809998V-1.19H218.304V0.809998H220.304ZM284.206 0.809998H286.206V-1.19H284.206V0.809998ZM284.206 16.474V18.474H286.206V16.474H284.206ZM261.333 16.474V14.474H259.333V16.474H261.333ZM261.333 64V66H263.333V64H261.333ZM243.177 64H241.177V66H243.177V64ZM243.177 16.474H245.177V14.474H243.177V16.474ZM222.304 16.474V0.809998H218.304V16.474H222.304ZM220.304 2.81H284.206V-1.19H220.304V2.81ZM282.206 0.809998V16.474H286.206V0.809998H282.206ZM284.206 14.474H261.333V18.474H284.206V14.474ZM259.333 16.474V64H263.333V16.474H259.333ZM261.333 62H243.177V66H261.333V62ZM245.177 64V16.474H241.177V64H245.177ZM243.177 14.474H220.304V18.474H243.177V14.474ZM338.961 64H336.961V66H338.961V64ZM338.961 40.326H340.961V38.326H338.961V40.326ZM311.994 40.326V38.326H309.994V40.326H311.994ZM311.994 64V66H313.994V64H311.994ZM293.749 64H291.749V66H293.749V64ZM293.749 0.809998V-1.19H291.749V0.809998H293.749ZM311.994 0.809998H313.994V-1.19H311.994V0.809998ZM311.994 24.484H309.994V26.484H311.994V24.484ZM338.961 24.484V26.484H340.961V24.484H338.961ZM338.961 0.809998V-1.19H336.961V0.809998H338.961ZM357.206 0.809998H359.206V-1.19H357.206V0.809998ZM357.206 64V66H359.206V64H357.206ZM340.961 64V40.326H336.961V64H340.961ZM338.961 38.326H311.994V42.326H338.961V38.326ZM309.994 40.326V64H313.994V40.326H309.994ZM311.994 62H293.749V66H311.994V62ZM295.749 64V0.809998H291.749V64H295.749ZM293.749 2.81H311.994V-1.19H293.749V2.81ZM309.994 0.809998V24.484H313.994V0.809998H309.994ZM311.994 26.484H338.961V22.484H311.994V26.484ZM340.961 24.484V0.809998H336.961V24.484H340.961ZM338.961 2.81H357.206V-1.19H338.961V2.81ZM355.206 0.809998V64H359.206V0.809998H355.206ZM357.206 62H338.961V66H357.206V62ZM370.581 64H368.581V66H370.581V64ZM370.581 0.809998V-1.19H368.581V0.809998H370.581ZM425.049 0.809998H427.049V-1.19H425.049V0.809998ZM425.049 15.495V17.495H427.049V15.495H425.049ZM388.826 15.495V13.495H386.826V15.495H388.826ZM388.826 23.772H386.826V25.772H388.826V23.772ZM410.364 23.772H412.364V21.772H410.364V23.772ZM410.364 38.813V40.813H412.364V38.813H410.364ZM388.826 38.813V36.813H386.826V38.813H388.826ZM388.826 48.514H386.826V50.514H388.826V48.514ZM428.52 48.514H430.52V46.514H428.52V48.514ZM428.52 64V66H430.52V64H428.52ZM372.581 64V0.809998H368.581V64H372.581ZM370.581 2.81H425.049V-1.19H370.581V2.81ZM423.049 0.809998V15.495H427.049V0.809998H423.049ZM425.049 13.495H388.826V17.495H425.049V13.495ZM386.826 15.495V23.772H390.826V15.495H386.826ZM388.826 25.772H410.364V21.772H388.826V25.772ZM408.364 23.772V38.813H412.364V23.772H408.364ZM410.364 36.813H388.826V40.813H410.364V36.813ZM386.826 38.813V48.514H390.826V38.813H386.826ZM388.826 50.514H428.52V46.514H388.826V50.514ZM426.52 48.514V64H430.52V48.514H426.52ZM428.52 62H370.581V66H428.52V62ZM438.027 64H436.027V66H438.027V64ZM438.027 0.809998V-1.19H436.027V0.809998H438.027ZM494.008 6.15L492.706 7.66855L492.717 7.67759L494.008 6.15ZM494.008 38.368L492.717 36.8404L492.706 36.8495L494.008 38.368ZM456.183 43.708V41.708H454.183V43.708H456.183ZM456.183 64V66H458.183V64H456.183ZM456.183 16.474V14.474H454.183V16.474H456.183ZM456.183 28.044H454.183V30.044H456.183V28.044ZM440.027 64V0.809998H436.027V64H440.027ZM438.027 2.81H476.831V-1.19H438.027V2.81ZM476.831 2.81C483.812 2.81 489.021 4.51006 492.706 7.66851L495.309 4.63148C490.687 0.669933 484.445 -1.19 476.831 -1.19V2.81ZM492.717 7.67759C496.352 10.7499 498.327 15.4782 498.327 22.259H502.327C502.327 14.6811 500.088 8.67011 495.298 4.62241L492.717 7.67759ZM498.327 22.259C498.327 29.0398 496.352 33.7681 492.717 36.8404L495.298 39.8956C500.088 35.8479 502.327 29.8368 502.327 22.259H498.327ZM492.706 36.8495C489.021 40.0079 483.812 41.708 476.831 41.708V45.708C484.445 45.708 490.687 43.8481 495.309 39.8865L492.706 36.8495ZM476.831 41.708H456.183V45.708H476.831V41.708ZM454.183 43.708V64H458.183V43.708H454.183ZM456.183 62H438.027V66H456.183V62ZM474.606 14.474H456.183V18.474H474.606V14.474ZM454.183 16.474V28.044H458.183V16.474H454.183ZM456.183 30.044H474.606V26.044H456.183V30.044ZM474.606 30.044C477.173 30.044 479.47 29.5238 481.15 28.1422C482.904 26.6991 483.637 24.6096 483.637 22.259H479.637C479.637 23.765 479.198 24.5681 478.608 25.0533C477.944 25.6 476.725 26.044 474.606 26.044V30.044ZM483.637 22.259C483.637 19.9084 482.904 17.8189 481.15 16.3758C479.47 14.9942 477.173 14.474 474.606 14.474V18.474C476.725 18.474 477.944 18.918 478.608 19.4647C479.198 19.9499 479.637 20.753 479.637 22.259H483.637ZM528.582 19.322H526.582V21.322H528.582V19.322ZM565.784 25.018L564.455 26.5128L564.461 26.518L564.467 26.5232L565.784 25.018ZM510.426 64H508.426V66H510.426V64ZM510.426 0.809998V-1.19H508.426V0.809998H510.426ZM528.582 0.809998H530.582V-1.19H528.582V0.809998ZM528.582 34.986V32.986H526.582V34.986H528.582ZM528.582 48.336H526.582V50.336H528.582V48.336ZM577.977 64H575.977V66H577.977V64ZM577.977 0.809998V-1.19H575.977V0.809998H577.977ZM596.222 0.809998H598.222V-1.19H596.222V0.809998ZM596.222 64V66H598.222V64H596.222ZM528.582 21.322H547.806V17.322H528.582V21.322ZM547.806 21.322C555.203 21.322 560.661 23.14 564.455 26.5128L567.113 23.5232C562.363 19.3014 555.836 17.322 547.806 17.322V21.322ZM564.467 26.5232C568.185 29.776 570.192 34.6983 570.192 41.661H574.192C574.192 33.909 571.927 27.736 567.101 23.5128L564.467 26.5232ZM570.192 41.661C570.192 48.8041 568.125 53.7621 564.322 56.949L566.89 60.015C571.868 55.8446 574.192 49.5885 574.192 41.661H570.192ZM564.322 56.949C560.389 60.2442 554.958 62 547.806 62V66C555.606 66 562.042 64.0772 566.89 60.015L564.322 56.949ZM547.806 62H510.426V66H547.806V62ZM512.426 64V0.809998H508.426V64H512.426ZM510.426 2.81H528.582V-1.19H510.426V2.81ZM526.582 0.809998V19.322H530.582V0.809998H526.582ZM545.403 32.986H528.582V36.986H545.403V32.986ZM526.582 34.986V48.336H530.582V34.986H526.582ZM528.582 50.336H545.403V46.336H528.582V50.336ZM545.403 50.336C548.327 50.336 550.892 49.7414 552.749 48.2106C554.681 46.6188 555.502 44.3072 555.502 41.661H551.502C551.502 43.4648 550.973 44.4907 550.205 45.1239C549.363 45.8181 547.878 46.336 545.403 46.336V50.336ZM555.502 41.661C555.502 39.0148 554.681 36.7032 552.749 35.1114C550.892 33.5806 548.327 32.986 545.403 32.986V36.986C547.878 36.986 549.363 37.5039 550.205 38.1981C550.973 38.8313 551.502 39.8572 551.502 41.661H555.502ZM579.977 64V0.809998H575.977V64H579.977ZM577.977 2.81H596.222V-1.19H577.977V2.81ZM594.222 0.809998V64H598.222V0.809998H594.222ZM596.222 62H577.977V66H596.222V62Z" fill="white"/>
</svg>
