<svg width="603" height="80" viewBox="0 0 603 80" fill="none" xmlns="http://www.w3.org/2000/svg">
<path d="M0.675 65H-1.325V67H0.675V65ZM0.675 1.81V-0.190002H-1.325V1.81H0.675ZM63.242 1.81H65.242V-0.190002H63.242V1.81ZM63.242 65V67H65.242V65H63.242ZM44.997 65H42.997V67H44.997V65ZM44.997 17.652H46.997V15.652H44.997V17.652ZM18.92 17.652V15.652H16.92V17.652H18.92ZM18.92 65V67H20.92V65H18.92ZM2.675 65V1.81H-1.325V65H2.675ZM0.675 3.81H63.242V-0.190002H0.675V3.81ZM61.242 1.81V65H65.242V1.81H61.242ZM63.242 63H44.997V67H63.242V63ZM46.997 65V17.652H42.997V65H46.997ZM44.997 15.652H18.92V19.652H44.997V15.652ZM16.92 17.652V65H20.92V17.652H16.92ZM18.92 63H0.675V67H18.92V63ZM76.551 65H74.551V67H76.551V65ZM76.551 1.81V-0.190002H74.551V1.81H76.551ZM132.532 7.15L131.23 8.66855L131.241 8.67759L132.532 7.15ZM132.532 39.368L131.241 37.8404L131.23 37.8495L132.532 39.368ZM94.707 44.708V42.708H92.707V44.708H94.707ZM94.707 65V67H96.707V65H94.707ZM94.707 17.474V15.474H92.707V17.474H94.707ZM94.707 29.044H92.707V31.044H94.707V29.044ZM78.551 65V1.81H74.551V65H78.551ZM76.551 3.81H115.355V-0.190002H76.551V3.81ZM115.355 3.81C122.337 3.81 127.546 5.51006 131.23 8.66851L133.834 5.63148C129.212 1.66993 122.969 -0.190002 115.355 -0.190002V3.81ZM131.241 8.67759C134.877 11.7499 136.851 16.4782 136.851 23.259H140.851C140.851 15.6811 138.613 9.67011 133.823 5.62241L131.241 8.67759ZM136.851 23.259C136.851 30.0398 134.877 34.7681 131.241 37.8404L133.823 40.8956C138.613 36.8479 140.851 30.8368 140.851 23.259H136.851ZM131.23 37.8495C127.546 41.0079 122.337 42.708 115.355 42.708V46.708C122.969 46.708 129.212 44.8481 133.834 40.8865L131.23 37.8495ZM115.355 42.708H94.707V46.708H115.355V42.708ZM92.707 44.708V65H96.707V44.708H92.707ZM94.707 63H76.551V67H94.707V63ZM113.13 15.474H94.707V19.474H113.13V15.474ZM92.707 17.474V29.044H96.707V17.474H92.707ZM94.707 31.044H113.13V27.044H94.707V31.044ZM113.13 31.044C115.697 31.044 117.995 30.5238 119.674 29.1422C121.428 27.6991 122.161 25.6096 122.161 23.259H118.161C118.161 24.765 117.722 25.5681 117.132 26.0533C116.468 26.6 115.25 27.044 113.13 27.044V31.044ZM122.161 23.259C122.161 20.9084 121.428 18.8189 119.674 17.3758C117.995 15.9942 115.697 15.474 113.13 15.474V19.474C115.25 19.474 116.468 19.918 117.132 20.4647C117.722 20.9499 118.161 21.753 118.161 23.259H122.161ZM155.803 56.901L154.423 58.3483L154.43 58.3547L155.803 56.901ZM155.892 9.731L154.533 8.26397L155.892 9.731ZM204.397 9.909L203.01 11.3499L203.017 11.3565L203.024 11.363L204.397 9.909ZM204.219 56.99L202.859 55.5234L202.853 55.5297L204.219 56.99ZM191.314 45.153L189.818 43.826L191.314 45.153ZM186.597 18.186L187.448 16.3759L187.404 16.3552L187.359 16.3366L186.597 18.186ZM168.886 21.657L170.383 22.984V22.984L168.886 21.657ZM168.886 45.242L167.39 46.569L167.403 46.5839L167.417 46.5986L168.886 45.242ZM180.1 64.068C170.828 64.068 163.237 61.1736 157.177 55.4473L154.43 58.3547C161.305 64.8511 169.911 68.068 180.1 68.068V64.068ZM157.184 55.4537C151.205 49.7516 148.191 42.4588 148.191 33.405H144.191C144.191 43.4566 147.586 51.8277 154.423 58.3483L157.184 55.4537ZM148.191 33.405C148.191 24.1037 151.24 16.7682 157.252 11.198L154.533 8.26397C147.61 14.6791 144.191 23.1263 144.191 33.405H148.191ZM157.252 11.198C163.312 5.58243 170.88 2.74199 180.1 2.74199V-1.25801C169.978 -1.25801 161.407 1.89423 154.533 8.26397L157.252 11.198ZM180.1 2.74199C189.499 2.74199 197.079 5.64069 203.01 11.3499L205.784 8.46811C199.018 1.95464 190.401 -1.25801 180.1 -1.25801V2.74199ZM203.024 11.363C208.994 17.0008 212.009 24.2879 212.009 33.405H216.009C216.009 23.2981 212.617 14.9212 205.771 8.45497L203.024 11.363ZM212.009 33.405C212.009 42.5735 208.94 49.885 202.86 55.5235L205.579 58.4565C212.552 51.991 216.009 43.5792 216.009 33.405H212.009ZM202.853 55.5297C196.789 61.204 189.252 64.068 180.1 64.068V68.068C190.173 68.068 198.715 64.88 205.586 58.4503L202.853 55.5297ZM180.1 51.87C185.286 51.87 189.596 50.1048 192.811 46.48L189.818 43.826C187.455 46.4905 184.289 47.87 180.1 47.87V51.87ZM192.811 46.48C195.962 42.9265 197.497 38.5208 197.497 33.405H193.497C193.497 37.6639 192.244 41.0901 189.818 43.826L192.811 46.48ZM197.497 33.405C197.497 29.4599 196.701 25.9837 194.999 23.0726C193.288 20.1471 190.737 17.9217 187.448 16.3759L185.747 19.996C188.391 21.239 190.29 22.9444 191.546 25.0919C192.81 27.2538 193.497 29.9928 193.497 33.405H197.497ZM187.359 16.3366C185.086 15.4006 182.66 14.94 180.1 14.94V18.94C182.169 18.94 184.075 19.3101 185.836 20.0354L187.359 16.3366ZM180.1 14.94C174.915 14.94 170.604 16.7052 167.39 20.33L170.383 22.984C172.746 20.3195 175.912 18.94 180.1 18.94V14.94ZM167.39 20.33C164.239 23.8835 162.703 28.2892 162.703 33.405H166.703C166.703 29.1461 167.957 25.7199 170.383 22.984L167.39 20.33ZM162.703 33.405C162.703 38.573 164.235 43.0107 167.39 46.569L170.383 43.915C167.961 41.1839 166.703 37.7304 166.703 33.405H162.703ZM167.417 46.5986C170.684 50.1385 174.978 51.87 180.1 51.87V47.87C175.967 47.87 172.784 46.5162 170.356 43.8854L167.417 46.5986ZM265.961 49.158V51.158H267.961V49.158H265.961ZM265.961 17.652H267.961V15.652H265.961V17.652ZM247.894 17.652V15.652H246.114L245.908 17.42L247.894 17.652ZM246.47 29.845L244.484 29.613L244.482 29.6266L244.481 29.6402L246.47 29.845ZM244.334 41.949L246.261 42.4843L246.268 42.4593L246.274 42.4341L244.334 41.949ZM241.664 49.158L239.836 48.3457L238.587 51.158H241.664V49.158ZM232.764 1.81V-0.190002H230.984L230.778 1.57781L232.764 1.81ZM284.206 1.81H286.206V-0.190002H284.206V1.81ZM284.206 49.158H282.206V51.158H284.206V49.158ZM293.106 49.158H295.106V47.158H293.106V49.158ZM293.106 79.418V81.418H295.106V79.418H293.106ZM276.641 79.418H274.641V81.418H276.641V79.418ZM276.641 65H278.641V63H276.641V65ZM234.366 65V63H232.366V65H234.366ZM234.366 79.418V81.418H236.366V79.418H234.366ZM217.901 79.418H215.901V81.418H217.901V79.418ZM217.901 49.158V47.158H215.901V49.158H217.901ZM224.22 49.158V51.158H225.401L225.971 50.1242L224.22 49.158ZM229.56 29.222L227.574 28.9898L227.57 29.0186L227.568 29.0475L229.56 29.222ZM267.961 49.158V17.652H263.961V49.158H267.961ZM265.961 15.652H247.894V19.652H265.961V15.652ZM245.908 17.42L244.484 29.613L248.457 30.077L249.881 17.884L245.908 17.42ZM244.481 29.6402C244.075 33.578 243.38 37.5191 242.394 41.4639L246.274 42.4341C247.305 38.3096 248.034 34.1813 248.46 30.0498L244.481 29.6402ZM242.407 41.4137C241.847 43.4308 240.995 45.7391 239.836 48.3457L243.492 49.9703C244.706 47.2369 245.635 44.7392 246.261 42.4843L242.407 41.4137ZM241.664 51.158H265.961V47.158H241.664V51.158ZM232.764 3.81H284.206V-0.190002H232.764V3.81ZM282.206 1.81V49.158H286.206V1.81H282.206ZM284.206 51.158H293.106V47.158H284.206V51.158ZM291.106 49.158V79.418H295.106V49.158H291.106ZM293.106 77.418H276.641V81.418H293.106V77.418ZM278.641 79.418V65H274.641V79.418H278.641ZM276.641 63H234.366V67H276.641V63ZM232.366 65V79.418H236.366V65H232.366ZM234.366 77.418H217.901V81.418H234.366V77.418ZM219.901 79.418V49.158H215.901V79.418H219.901ZM217.901 51.158H224.22V47.158H217.901V51.158ZM225.971 50.1242C228.995 44.6433 230.825 37.7031 231.552 29.3965L227.568 29.0475C226.871 36.9982 225.141 43.3487 222.469 48.1918L225.971 50.1242ZM231.547 29.4542L234.751 2.04218L230.778 1.57781L227.574 28.9898L231.547 29.4542ZM328.591 65V67H329.72L330.303 66.0325L328.591 65ZM308.833 65L307.12 63.9668L305.29 67H308.833V65ZM321.56 43.907L323.272 44.9402L323.926 43.8559L323.226 42.8008L321.56 43.907ZM293.614 1.81V-0.190002H289.885L291.947 2.91614L293.614 1.81ZM315.419 1.81L317.087 0.707481L316.494 -0.190002H315.419V1.81ZM331.884 26.73L330.215 27.8325L331.96 30.4738L333.596 27.7635L331.884 26.73ZM346.925 1.81V-0.190002H345.796L345.212 0.776512L346.925 1.81ZM366.683 1.81L368.395 2.84253L370.224 -0.190002H366.683V1.81ZM328.591 63H308.833V67H328.591V63ZM310.545 66.0332L323.272 44.9402L319.847 42.8738L307.12 63.9668L310.545 66.0332ZM323.226 42.8008L295.28 0.70385L291.947 2.91614L319.893 45.0131L323.226 42.8008ZM293.614 3.81H315.419V-0.190002H293.614V3.81ZM313.75 2.91251L330.215 27.8325L333.552 25.6275L317.087 0.707481L313.75 2.91251ZM333.596 27.7635L348.637 2.84348L345.212 0.776512L330.171 25.6965L333.596 27.7635ZM346.925 3.81H366.683V-0.190002H346.925V3.81ZM364.97 0.77746L326.878 63.9675L330.303 66.0325L368.395 2.84253L364.97 0.77746ZM372.928 65H370.928V67H372.928V65ZM372.928 1.81V-0.190002H370.928V1.81H372.928ZM391.173 1.81H393.173V-0.190002H391.173V1.81ZM391.173 28.154H389.173V33.1273L392.616 29.5387L391.173 28.154ZM416.449 1.81V-0.190002H415.596L415.006 0.425339L416.449 1.81ZM439.767 1.81L441.209 3.1963L444.465 -0.190002H439.767V1.81ZM410.753 31.981L409.311 30.5947L408.008 31.95L409.28 33.3344L410.753 31.981ZM441.102 65V67H445.657L442.574 63.6466L441.102 65ZM416.449 65L414.974 66.351L415.569 67H416.449V65ZM391.173 37.41L392.648 36.059L389.173 32.2662V37.41H391.173ZM391.173 65V67H393.173V65H391.173ZM374.928 65V1.81H370.928V65H374.928ZM372.928 3.81H391.173V-0.190002H372.928V3.81ZM389.173 1.81V28.154H393.173V1.81H389.173ZM392.616 29.5387L417.892 3.19465L415.006 0.425339L389.73 26.7693L392.616 29.5387ZM416.449 3.81H439.767V-0.190002H416.449V3.81ZM438.325 0.423695L409.311 30.5947L412.195 33.3673L441.209 3.1963L438.325 0.423695ZM409.28 33.3344L439.629 66.3534L442.574 63.6466L412.225 30.6276L409.28 33.3344ZM441.102 63H416.449V67H441.102V63ZM417.924 63.649L392.648 36.059L389.698 38.761L414.974 66.351L417.924 63.649ZM389.173 37.41V65H393.173V37.41H389.173ZM391.173 63H372.928V67H391.173V63ZM443.065 17.474H441.065V19.474H443.065V17.474ZM443.065 1.81V-0.190002H441.065V1.81H443.065ZM506.967 1.81H508.967V-0.190002H506.967V1.81ZM506.967 17.474V19.474H508.967V17.474H506.967ZM484.094 17.474V15.474H482.094V17.474H484.094ZM484.094 65V67H486.094V65H484.094ZM465.938 65H463.938V67H465.938V65ZM465.938 17.474H467.938V15.474H465.938V17.474ZM445.065 17.474V1.81H441.065V17.474H445.065ZM443.065 3.81H506.967V-0.190002H443.065V3.81ZM504.967 1.81V17.474H508.967V1.81H504.967ZM506.967 15.474H484.094V19.474H506.967V15.474ZM482.094 17.474V65H486.094V17.474H482.094ZM484.094 63H465.938V67H484.094V63ZM467.938 65V17.474H463.938V65H467.938ZM465.938 15.474H443.065V19.474H465.938V15.474ZM534.666 20.322H532.666V22.322H534.666V20.322ZM571.868 26.018L570.539 27.5128L570.545 27.518L570.551 27.5232L571.868 26.018ZM516.51 65H514.51V67H516.51V65ZM516.51 1.81V-0.190002H514.51V1.81H516.51ZM534.666 1.81H536.666V-0.190002H534.666V1.81ZM534.666 35.986V33.986H532.666V35.986H534.666ZM534.666 49.336H532.666V51.336H534.666V49.336ZM584.061 65H582.061V67H584.061V65ZM584.061 1.81V-0.190002H582.061V1.81H584.061ZM602.306 1.81H604.306V-0.190002H602.306V1.81ZM602.306 65V67H604.306V65H602.306ZM534.666 22.322H553.89V18.322H534.666V22.322ZM553.89 22.322C561.286 22.322 566.745 24.14 570.539 27.5128L573.197 24.5232C568.447 20.3014 561.92 18.322 553.89 18.322V22.322ZM570.551 27.5232C574.268 30.776 576.276 35.6983 576.276 42.661H580.276C580.276 34.909 578.011 28.736 573.185 24.5128L570.551 27.5232ZM576.276 42.661C576.276 49.8041 574.209 54.7621 570.406 57.949L572.974 61.015C577.952 56.8446 580.276 50.5885 580.276 42.661H576.276ZM570.406 57.949C566.473 61.2442 561.042 63 553.89 63V67C561.69 67 568.126 65.0772 572.974 61.015L570.406 57.949ZM553.89 63H516.51V67H553.89V63ZM518.51 65V1.81H514.51V65H518.51ZM516.51 3.81H534.666V-0.190002H516.51V3.81ZM532.666 1.81V20.322H536.666V1.81H532.666ZM551.487 33.986H534.666V37.986H551.487V33.986ZM532.666 35.986V49.336H536.666V35.986H532.666ZM534.666 51.336H551.487V47.336H534.666V51.336ZM551.487 51.336C554.411 51.336 556.976 50.7414 558.833 49.2106C560.765 47.6188 561.586 45.3072 561.586 42.661H557.586C557.586 44.4648 557.057 45.4907 556.289 46.1239C555.447 46.8181 553.962 47.336 551.487 47.336V51.336ZM561.586 42.661C561.586 40.0148 560.765 37.7032 558.833 36.1114C556.976 34.5806 554.411 33.986 551.487 33.986V37.986C553.962 37.986 555.447 38.5039 556.289 39.1981C557.057 39.8313 557.586 40.8572 557.586 42.661H561.586ZM586.061 65V1.81H582.061V65H586.061ZM584.061 3.81H602.306V-0.190002H584.061V3.81ZM600.306 1.81V65H604.306V1.81H600.306ZM602.306 63H584.061V67H602.306V63Z" fill="white"/>
</svg>
